<?xml version="1.0" encoding="utf-8"?>
<!-- Generator: Adobe Illustrator 23.1.0, SVG Export Plug-In . SVG Version: 6.00 Build 0)  -->
<svg version="1.1" id="Layer_1" xmlns="http://www.w3.org/2000/svg" xmlns:xlink="http://www.w3.org/1999/xlink" x="0px" y="0px"
	 viewBox="0 0 24 24" style="enable-background:new 0 0 24 24;" xml:space="preserve">
<style type="text/css">
	.st0{fill:#7952B3;}
</style>
<title>Bootstrap icon</title>
<path class="st0" d="M11.8,11.2H10v-3h2.2c1.2,0,1.8,0.5,1.8,1.5C13.9,10.7,13.2,11.2,11.8,11.2L11.8,11.2z M12.1,12.4H10v3.3h2.2
	c1.5,0,2.2-0.6,2.2-1.7S13.6,12.4,12.1,12.4z M24,11.4v1.2c-1.1,0.1-1.8,0.9-2.2,2.3c-0.4,1.3-0.5,2.9-0.4,4.2c0,1.3-1,2.5-2.3,2.5
	H5c-1.4,0-2.4-1.2-2.3-2.5c0-1.2,0-2.9-0.4-4.2c-0.4-1.3-1.1-2.2-2.2-2.3v-1.2c1.1-0.1,1.8-0.9,2.2-2.3c0.4-1.3,0.5-2.9,0.4-4.2
	c0-1.3,1-2.5,2.3-2.5h14c1.4,0,2.4,1.2,2.3,2.5c0,1.2,0,2.9,0.4,4.2C22.2,10.4,22.9,11.3,24,11.4z M16.1,14.2c0-1.4-1-2.3-2.4-2.5
	v-0.1c1-0.2,1.9-1.1,1.9-2.2c0-1.5-1.2-2.5-3.1-2.5H8.3v10.2h4.2C14.7,17.1,16.1,16,16.1,14.2z"/>
</svg>
