<?xml version="1.0" encoding="utf-8"?>
<!-- Generator: Adobe Illustrator 23.1.0, SVG Export Plug-In . SVG Version: 6.00 Build 0)  -->
<svg version="1.1" id="Layer_1" xmlns="http://www.w3.org/2000/svg" xmlns:xlink="http://www.w3.org/1999/xlink" x="0px" y="0px"
	 viewBox="0 0 24 24" style="enable-background:new 0 0 24 24;" xml:space="preserve">
<style type="text/css">
	.st0{fill:#007396;}
</style>
<title>Java icon</title>
<path class="st0" d="M8.9,18.6c0,0-0.9,0.5,0.7,0.7c1.9,0.2,2.9,0.2,5-0.2c0,0,0.6,0.3,1.3,0.6C11.1,21.7,5.2,19.6,8.9,18.6
	 M8.3,15.9c0,0-1,0.8,0.5,0.9c2,0.2,3.6,0.2,6.4-0.3c0,0,0.4,0.4,1,0.6C10.5,18.8,4.2,17.3,8.3,15.9 M13.1,11.5
	c1.2,1.3-0.3,2.5-0.3,2.5s2.9-1.5,1.6-3.4c-1.3-1.8-2.2-2.7,3-5.7C17.4,4.9,9.2,7,13.1,11.5 M19.3,20.5c0,0,0.7,0.6-0.7,1
	c-2.7,0.8-11.3,1.1-13.7,0c-0.9-0.4,0.8-0.9,1.3-1C6.7,20.4,7,20.4,7,20.4c-1-0.7-6.2,1.3-2.6,1.9C13.9,23.9,21.8,21.6,19.3,20.5
	 M9.3,13.2c0,0-4.4,1-1.5,1.4c1.2,0.2,3.6,0.1,5.8-0.1c1.8-0.2,3.6-0.5,3.6-0.5s-0.6,0.3-1.1,0.6c-4.4,1.2-13,0.6-10.5-0.6
	C7.6,13.1,9.3,13.2,9.3,13.2 M17.1,17.6c4.5-2.3,2.4-4.6,1-4.3c-0.4,0.1-0.5,0.1-0.5,0.1s0.1-0.2,0.4-0.3c2.9-1,5.1,3-0.9,4.6
	C17,17.7,17.1,17.6,17.1,17.6 M14.4,0c0,0,2.5,2.5-2.4,6.3c-3.9,3.1-0.9,4.8,0,6.8c-2.3-2.1-3.9-3.9-2.8-5.5C10.9,5.2,15.4,4,14.4,0
	 M9.7,23.9c4.3,0.3,11-0.2,11.1-2.2c0,0-0.3,0.8-3.6,1.4c-3.7,0.7-8.2,0.6-10.9,0.2C6.3,23.3,6.9,23.7,9.7,23.9"/>
</svg>
