<?xml version="1.0" encoding="utf-8"?>
<!-- Generator: Adobe Illustrator 23.1.0, SVG Export Plug-In . SVG Version: 6.00 Build 0)  -->
<svg version="1.1" id="Layer_1" xmlns="http://www.w3.org/2000/svg" xmlns:xlink="http://www.w3.org/1999/xlink" x="0px" y="0px"
	 viewBox="0 0 24 24" style="enable-background:new 0 0 24 24;" xml:space="preserve">
<style type="text/css">
	.st0{fill:#48B9C7;}
</style>
<title>Pop!_OS icon</title>
<path class="st0" d="M15.7,11.3c-0.8,1.4-0.9,1.5-1.2,1.4c-0.3-0.1-0.2-1.5,0.1-3.1c0.1-0.5,0.2-0.7,0.3-0.8
	c0.2-0.2,0.5-0.2,0.8-0.1c0.3,0,0.5,0.2,0.7,0.3c0.2,0.2,0.2,0.3,0.1,0.5c-0.1,0.3-0.3,0.7-0.4,1C16.1,10.6,15.8,11.2,15.7,11.3z
	 M14.3,13.3c-0.2,0.1-0.3,0.2-0.4,0.4c0,0.2,0,0.4,0.1,0.5c0.1,0.1,0.4,0.2,0.5,0.1c0.1-0.1,0.2-0.2,0.2-0.3
	C14.9,13.6,14.7,13.2,14.3,13.3L14.3,13.3z M9.3,12c0.2,0.7,0.1,1.4,0,1.9c-0.1,0.5-0.5,0.9-1,1.1c-0.5,0.1-1,0-1.3-0.3
	c-0.5-0.5-0.9-1.8-0.7-2.7c0.1-0.7,0.5-1.6,1.4-1.7c0.1,0,0.1,0,0.2,0C8.6,10.5,9.1,11.2,9.3,12z M8.2,12.4c0-0.1-0.1-0.2-0.2-0.3
	c-0.3-0.3-0.7,0-0.7,0.4c0,0.3,0,0.6,0.2,0.9c0.1,0.1,0.2,0.2,0.3,0.2c0,0,0.1,0,0.1,0c0.2,0,0.3-0.2,0.3-0.4
	C8.2,12.9,8.2,12.6,8.2,12.4z M13,12.5c-0.3,0.5-1.3,0.9-1.8,0.8v0.1c0,1.2,0.1,2.1-0.4,2.3c-0.4,0.1-0.4-0.3-0.4-0.6
	c-0.1-1.2-0.2-3.3-0.3-4.5c0-0.5,0.4-0.9,0.8-0.9c0.6-0.1,1.2-0.1,1.7,0.2C13.5,10.5,13.6,11.6,13,12.5z M11.9,11.3
	c-0.1-0.2-0.3-0.6-0.6-0.5c-0.1,0-0.2,0-0.2,0.1c-0.1,0.1-0.1,1,0.1,1.4c0,0.1,0.1,0.1,0.1,0.1c0.2,0.1,0.4-0.2,0.5-0.4
	C12,11.8,12,11.5,11.9,11.3z M5.5,9.7c0.1,0.6,0.1,1.2-0.1,1.6c-0.4,0.8-1,1.4-1.9,1.7c0.2,0.6,0.5,1.3,0.7,1.9
	c0.1,0.4,0.3,0.7,0.1,1.1c-0.1,0.4-0.6,0.5-1,0.1c-0.7-0.7-3-5.3-3.2-5.7C0.2,10.2,0,9.9,0,9.5c0-0.5,0.8-1,1.2-1.3
	C1.7,7.9,2.3,7.6,3,7.6c0.5,0,1,0.1,1.3,0.4C4.9,8.4,5.4,9,5.5,9.7z M3.7,10.5C3.5,10,3.3,9.5,2.9,9.2C2.8,9.1,2.7,9.1,2.6,9
	c-0.7-0.2-0.4,1-0.3,1.3c0.2,0.4,0.4,1,0.7,1.3c0.1,0.1,0.2,0.1,0.3,0.2c0.1,0,0.3-0.1,0.4-0.2c0.1-0.1,0.1-0.2,0.1-0.3
	C3.8,10.9,3.8,10.7,3.7,10.5L3.7,10.5z M22.9,14.7c-0.4-0.1-0.6-0.1-0.6-0.4c0-0.2,0.3-0.4,0.6-0.4c0.1,0,0.3,0,0.5,0.1l0,0.4h0.4
	c0-0.2,0-0.3,0-0.6c-0.3-0.3-0.6-0.3-0.9-0.3c-0.5,0-1.1,0.3-1.1,0.8c0,0.6,0.4,0.7,1,0.8c0.3,0,0.7,0.1,0.7,0.4
	c0,0.3-0.4,0.4-0.7,0.4c-0.2,0-0.4-0.1-0.5-0.1l0-0.4h-0.4c0,0.1,0,0.5,0,0.6c0.3,0.3,0.6,0.4,1,0.4c0.5,0,1.2-0.2,1.2-0.9
	C24,14.9,23.4,14.8,22.9,14.7z M21.8,16C21.8,16,21.8,16,21.8,16z M21.4,15c0,0.7-0.4,1.4-1.4,1.4s-1.4-0.7-1.4-1.4
	c0-0.9,0.6-1.4,1.4-1.4C21,13.6,21.4,14.3,21.4,15z M20.9,15c0-0.5-0.2-1-0.9-1c-0.6,0-0.9,0.4-0.9,1c0,0.5,0.3,0.9,0.9,0.9
	S20.9,15.4,20.9,15L20.9,15z M17.8,15.9h-2.6c-0.1,0-0.2,0.1-0.2,0.2v0c0,0.1,0.1,0.2,0.2,0.2h2.6c0.1,0,0.2-0.1,0.2-0.2v0
	C18.1,16,18,15.9,17.8,15.9C17.8,15.9,17.8,15.9,17.8,15.9L17.8,15.9z"/>
</svg>
