<?xml version="1.0" encoding="utf-8"?>
<!-- Generator: Adobe Illustrator 23.1.0, SVG Export Plug-In . SVG Version: 6.00 Build 0)  -->
<svg version="1.1" id="Layer_1" xmlns="http://www.w3.org/2000/svg" xmlns:xlink="http://www.w3.org/1999/xlink" x="0px" y="0px"
	 viewBox="0 0 24 24" style="enable-background:new 0 0 24 24;" xml:space="preserve">
<style type="text/css">
	.st0{fill:#3776AB;}
</style>
<title>Python icon</title>
<path class="st0" d="M14.3,0.2l0.9,0.2l0.7,0.3l0.6,0.3l0.5,0.3l0.3,0.3l0.3,0.3l0.2,0.3l0.1,0.3l0,0.3l0,0.2l0,0.1v5.3l0,0.6
	l-0.1,0.6l-0.2,0.5l-0.3,0.4l-0.3,0.3l-0.3,0.3l-0.4,0.2l-0.4,0.1l-0.3,0.1l-0.3,0.1l-0.3,0l-0.2,0h-6l-0.7,0.1l-0.6,0.1L7,12.1
	l-0.4,0.3l-0.3,0.3L6,13l-0.2,0.4l-0.2,0.4l-0.1,0.4l-0.1,0.3l0,0.3l0,0.2v3.1H3.2l-0.2,0l-0.3-0.1l-0.3-0.1L2,17.5l-0.4-0.3
	l-0.4-0.4l-0.4-0.5l-0.3-0.6l-0.3-0.7l-0.2-0.9L0,13.2L-0.1,12L0,10.8l0.2-1l0.2-0.9l0.3-0.7l0.4-0.6l0.4-0.4l0.4-0.3l0.4-0.2
	l0.4-0.2l0.4-0.1l0.3-0.1l0.2,0h0.2l0.1,0H12V5.4H6.2l0-2.8l0-0.4L6.2,2l0.1-0.3l0.2-0.3l0.3-0.3L7,0.9l0.4-0.2l0.4-0.2l0.5-0.2
	l0.6-0.1l0.6-0.1l0.7-0.1l0.8,0l0.8,0l1.3,0.1L14.3,0.2z M7.9,2.2L7.7,2.5L7.6,2.9l0.1,0.4l0.2,0.3l0.3,0.2L8.7,4l0.4-0.1l0.3-0.2
	l0.2-0.3l0.1-0.4L9.7,2.5L9.4,2.2L9.1,1.9L8.7,1.9L8.3,1.9L7.9,2.2z M21,6.1l0.3,0.1l0.3,0.1L22,6.5l0.4,0.3l0.4,0.3l0.4,0.5
	l0.3,0.6l0.3,0.7l0.2,0.9l0.1,1l0,1.2L24,13.3l-0.2,1l-0.2,0.9l-0.3,0.7l-0.4,0.6l-0.4,0.5l-0.4,0.3l-0.4,0.2l-0.4,0.2l-0.4,0.1
	l-0.3,0l-0.2,0l-0.2,0H12v0.8h5.8l0,2.8l0,0.4l0,0.3l-0.1,0.3l-0.2,0.3l-0.3,0.3L17,23.1l-0.4,0.2l-0.4,0.2l-0.5,0.1l-0.6,0.1
	l-0.6,0.1l-0.7,0.1l-0.8,0l-0.8,0l-1.3,0l-1.1-0.1l-0.9-0.2l-0.7-0.3l-0.6-0.3l-0.4-0.3l-0.3-0.3l-0.3-0.3l-0.2-0.3l-0.1-0.3l0-0.3
	l0-0.2l0-0.1v-5.3l0.1-0.6l0.1-0.5l0.2-0.5l0.3-0.4l0.3-0.3l0.3-0.2l0.3-0.2l0.3-0.1l0.3-0.1l0.3-0.1l0.3,0l0.2,0l0.1,0h5.8l0.7-0.1
	l0.6-0.1L17,12l0.4-0.3l0.3-0.3L18,11l0.2-0.4l0.1-0.4l0.1-0.4l0.1-0.3l0-0.3l0-0.2V6.1h2.1l0.1,0L21,6.1z M14.6,20.4l-0.2,0.3
	l-0.1,0.4l0.1,0.4l0.2,0.3l0.3,0.2l0.4,0.1l0.4-0.1l0.3-0.2l0.2-0.3l0.1-0.4l-0.1-0.4l-0.2-0.3l-0.3-0.2l-0.4-0.1l-0.4,0.1
	L14.6,20.4z"/>
</svg>
