<?xml version="1.0" encoding="utf-8"?>
<!-- Generator: Adobe Illustrator 23.1.0, SVG Export Plug-In . SVG Version: 6.00 Build 0)  -->
<svg version="1.1" id="Layer_1" xmlns="http://www.w3.org/2000/svg" xmlns:xlink="http://www.w3.org/1999/xlink" x="0px" y="0px"
	 viewBox="0 0 24 24" style="enable-background:new 0 0 24 24;" xml:space="preserve">
<style type="text/css">
	.st0{fill:#276DC3;}
</style>
<title>R icon</title>
<path class="st0" d="M12,18.8c-6.6,0-12-3.6-12-8s5.4-8,12-8s12,3.6,12,8S18.6,18.8,12,18.8z M13.8,5.9c-5,0-9.1,2.5-9.1,5.5
	s4.1,5.5,9.1,5.5s8.8-1.7,8.8-5.5S18.9,5.9,13.8,5.9z M18.3,15.2c0.4,0.1,0.8,0.3,1.1,0.4c0.2,0.1,0.4,0.2,0.6,0.4
	c0.1,0.1,0.2,0.2,0.3,0.4l2.9,4.8l-4.6,0l-2.2-4.1c-0.2-0.4-0.4-0.7-0.7-1c-0.1-0.2-0.3-0.2-0.5-0.3H14v5.3l-4.1,0V7.7h8.2
	c0,0,3.7,0.1,3.7,3.6C21.9,13.4,20.3,15.1,18.3,15.2z M16.5,10.7l-2.5,0V13h2.5c0.6,0,1.1-0.5,1.1-1.1c0,0,0,0,0-0.1
	c0-0.6-0.4-1.1-1-1.1C16.6,10.7,16.5,10.7,16.5,10.7z"/>
</svg>
