<svg id="Layer_1" data-name="Layer 1" xmlns="http://www.w3.org/2000/svg" viewBox="0 0 388.03 494.58"><defs><style>.cls-1{fill:none;stroke:#231f20;stroke-miterlimit:10;stroke-width:20px;}</style></defs><title>rg-logo</title><path class="cls-1" d="M58,354.64c-1.42-35.52,26.81-64.09,44.42-69.95,33-11,72.86,13.82,77.06,17.17,37,29.53,64.13,91.09,38.46,123.33-14,17.61-40.39,24.26-57.91,14.09-29.92-17.39-37.13-65.42-8.38-102.72,7-9.06,21.13-23.25,42.42-38.68,15-10.89,38.24-30.78,64.54-59.23C281.89,213.48,293.72,192,289.57,167c-3.79-22.76-19.31-44.9-43.8-56.75-19.85-9.62-53.45-.33-65.38,18.73-11.07,17.69-16.8,40.31-10.31,62.85,5.68,19.75,13.15,29.6,28.43,42.3,21.88,18.19,50.78,23.43,85.76,39.78,29.34,13.73,116.53,46.72,137,116.32,7.39,25.08,9.05,67.22-17.68,88.85s-74.41,19-96.81-3.59c-38.94-39.36-1.62-119,6.19-137.42C326.58,306,334.66,299,355.44,255.45c17.58-36.9,30.47-63.93,32.27-100.79.38-7.82,3.41-93.07-50.4-126.86a84.77,84.77,0,0,0-19-8.85" transform="translate(-47.97 -9.44)"/></svg>