<svg id="Layer_1" data-name="Layer 1" xmlns="http://www.w3.org/2000/svg" viewBox="0 0 390.05 486.48"><defs><style>.cls-1{fill:none;stroke:#231f20;stroke-miterlimit:10;stroke-width:54px;}</style></defs><title>rg-logo2</title><path class="cls-1" d="M88,345.62c-1.29-32.43,24.48-58.52,40.57-63.87,30.12-10,66.52,12.62,70.36,15.68,33.75,27,58.55,83.17,35.11,112.61-12.8,16.08-36.88,22.16-52.87,12.87-27.32-15.88-33.91-59.74-7.66-93.79,6.38-8.28,19.29-21.23,38.74-35.32,13.72-9.94,34.91-28.11,58.93-54.09,21.24-23,32-42.64,28.25-65.39-3.46-20.78-17.63-41-40-51.82-18.13-8.78-48.81-.3-59.7,17.11-10.11,16.15-15.34,36.8-9.42,57.39,5.19,18,12,27,26,38.62,20,16.61,46.37,21.39,78.31,36.33C321.4,284.48,401,314.6,419.74,378.16c6.74,22.9,8.26,61.37-16.15,81.13s-67.94,17.38-88.4-3.29c-35.56-35.93-1.48-108.62,5.66-125.47,12.39-29.3,19.77-35.68,38.74-75.48,16.06-33.69,27.83-58.37,29.47-92,.35-7.14,3.11-85-46-115.84a77,77,0,0,0-17.36-8.07" transform="translate(-60.97 -13.41)"/></svg>