<?xml version="1.0" encoding="UTF-8" standalone="no"?>
<!-- Created with Inkscape (http://www.inkscape.org/) -->

<svg
   width="85.978683mm"
   height="72.760414mm"
   viewBox="0 0 85.978683 72.760414"
   version="1.1"
   id="svg5"
   inkscape:export-filename="bitmap.svg"
   inkscape:export-xdpi="96"
   inkscape:export-ydpi="96"
   xmlns:inkscape="http://www.inkscape.org/namespaces/inkscape"
   xmlns:sodipodi="http://sodipodi.sourceforge.net/DTD/sodipodi-0.dtd"
   xmlns="http://www.w3.org/2000/svg"
   xmlns:svg="http://www.w3.org/2000/svg">
  <sodipodi:namedview
     id="namedview7"
     pagecolor="#ffffff"
     bordercolor="#999999"
     borderopacity="1"
     inkscape:showpageshadow="0"
     inkscape:pageopacity="0"
     inkscape:pagecheckerboard="0"
     inkscape:deskcolor="#d1d1d1"
     inkscape:document-units="mm"
     showgrid="false"
     inkscape:zoom="0.53354917"
     inkscape:cx="626.93379"
     inkscape:cy="300.81576"
     inkscape:window-width="1920"
     inkscape:window-height="1018"
     inkscape:window-x="0"
     inkscape:window-y="30"
     inkscape:window-maximized="1"
     inkscape:current-layer="layer1" />
  <defs
     id="defs2" />
  <g
     inkscape:label="logo"
     inkscape:groupmode="layer"
     id="layer1"
     transform="translate(-97.961438,-66.322961)">
    <g
       id="g21662"
       transform="translate(-8.6538243,18.059842)">
      <g
         id="g21651"
         transform="matrix(0.86363408,0,0,0.86363408,15.439461,-2.7922432)"
         inkscape:label="rg">
        <path
           id="text741"
           style="font-style:normal;font-weight:normal;font-size:98.7778px;line-height:1.25;font-family:sans-serif;fill:#ffffff;fill-opacity:1;stroke:#0d1017;stroke-width:1.5;stroke-dasharray:none;stroke-opacity:1"
           inkscape:label="g"
           d="m 106.32226,59.866891 v 5.78776 h 47.2183 1.54358 23.44043 v 5.35368 c -0.12862,0.51447 -0.36978,0.80387 -0.72347,0.86817 -12.08997,0 -18.13481,3.69792 -18.13481,11.09338 0,2.15432 0.65882,4.16415 1.97714,6.02909 l 2.36368,3.32796 -0.0966,0.5302 c -1.80063,0.16077 -3.55287,0.900669 -5.25704,2.218979 -1.8971,1.41478 -2.84582,2.97409 -2.84582,4.67827 0,3.0868 2.50803,6.41478 7.52409,9.98389 2.41155,1.70418 4.46961,2.55643 6.17378,2.55643 2.3151,0 6.12538,-1.15756 11.43083,-3.47265 5.30543,-2.34726 9.11573,-3.52124 11.43082,-3.52124 2.50803,0 4.53375,0.86817 6.07715,2.6045 1.5434,1.70416 2.31511,3.82635 2.31511,6.36653 0,1.44694 -0.54697,2.92621 -1.64021,4.43746 -2.50803,3.5048 -5.88424,5.25704 -10.12858,5.25704 -1.70418,0 -4.16398,-1.09291 -7.3794,-3.27939 -3.76203,-2.54017 -6.30188,-4.11591 -7.62021,-4.72684 -2.47586,-1.1254 -5.38619,-1.68827 -8.73021,-1.68827 -4.85529,0 -9.17969,1.33458 -12.97389,4.00338 -3.37618,2.3794 -6.12538,5.33743 -8.24755,8.87439 -2.3151,3.82635 -3.47266,7.66895 -3.47266,11.52746 0,1.12539 0.0641,1.94534 0.19275,2.4598 1.8971,-4.05143 4.51751,-7.57233 7.86154,-10.56266 6.97745,-6.20576 14.40511,-9.30848 22.28287,-9.30848 3.66558,0 8.19935,1.35048 13.60124,4.05143 4.88744,2.44372 8.61768,3.66541 11.19002,3.66541 5.78774,0 8.68164,-2.99035 8.68164,-8.97103 0,-1.70416 -0.36995,-4.24452 -1.1095,-7.62072 -0.83601,-3.82635 -2.20239,-6.9773 -4.09949,-9.45317 -2.34725,-3.11896 -5.24114,-4.64646 -8.68164,-4.58215 -3.76203,0.0643 -8.71398,1.5918 -14.85542,4.58215 -5.20898,2.54018 -8.72989,3.8101 -10.56266,3.8101 -0.99679,0 -1.96141,-0.35352 -2.89389,-1.06091 -0.93246,-0.73955 -1.41478,-1.59182 -1.44694,-2.55644 -0.0322,-0.70739 0.41784,-1.62378 1.35031,-2.74918 2.34726,-2.86172 6.73632,-4.29225 13.16715,-4.29225 5.04821,0 8.74614,-0.51463 11.09338,-1.54357 3.53697,-1.543399 5.30562,-4.485529 5.30562,-8.826339 0,-1.1254 -0.11288,-2.05769 -0.33796,-2.79724 -0.0643,-0.19292 -0.33728,-0.69167 -0.81959,-1.49552 -0.418,-0.67524 -0.62735,-1.25402 -0.62735,-1.73633 0,-0.41801 0.30581,-0.83567 0.91674,-1.25367 0.61093,-0.41801 1.14148,-0.62735 1.59163,-0.62735 1.18971,0 2.15434,0.81994 2.89388,2.4598 0.54663,1.22186 0.85192,2.57233 0.91623,4.05143 l 5.06429,-5.78776 c -0.25724,-1.06109 -0.80369,-2.12218 -1.6397,-3.18327 -1.83277,-2.31509 -3.76204,-3.47265 -5.78776,-3.47265 -1.254,0.16077 -2.12218,0.48249 -2.60449,0.9648 l -1.83296,2.21847 c -0.83601,0.99677 -1.52715,1.49551 -2.07378,1.49551 -0.86816,-0.3537 -1.30224,-1.28651 -1.30224,-2.79776 v -8.10287 h 17.12195 v -5.78776 h -48.03845 -1.54358 z m 73.07047,15.5789 c 4.14789,0 6.22184,1.94516 6.22184,5.83582 0,2.47588 -0.81994,4.67862 -2.45979,6.60786 -1.35048,1.57555 -3.05449,2.95836 -5.11235,4.14807 -2.31511,1.35047 -4.38906,2.009289 -6.22185,1.977139 -1.76847,0 -3.34421,-0.626999 -4.72684,-1.881019 -1.35048,-1.25401 -2.02571,-2.7651 -2.02571,-4.53357 0,-3.24757 1.60754,-6.12556 4.82296,-8.63359 2.99033,-2.34725 6.15772,-3.52071 9.50174,-3.52071 z" />
        <path
           style="font-style:normal;font-weight:normal;font-size:98.7778px;line-height:1.25;font-family:sans-serif;fill:#ffffff;fill-opacity:1;stroke:#0d1017;stroke-width:1.5;stroke-dasharray:none;stroke-opacity:1"
           d="m 136.85286,71.683841 c -2.2508,0 -4.43712,0.36995 -6.55929,1.10949 -4.34082,1.51125 -7.20289,2.95819 -8.58553,4.34082 v -3.66592 h -9.35653 v 35.691359 l 9.26042,4.82296 V 93.532631 c 0,-5.85206 2.87746,-11.18984 8.63306,-16.01297 2.82957,-2.37941 5.4823,-3.56878 7.95817,-3.56878 1.18971,0 2.39549,0.35353 3.61735,1.06092 1.41479,0.7717 2.12235,1.704 2.12235,2.79725 0,2.05787 -1.12522,3.89066 -3.37602,5.49837 -1.9614,1.41478 -4.03536,2.21881 -6.22184,2.41174 l 7.2347,8.199499 c 2.12218,-0.996779 4.1479,-2.508379 6.07715,-4.534089 2.28295,-2.37941 3.42408,-4.5175 3.42408,-6.4146 0,-2.21864 -0.78761,-4.19613 -2.36316,-5.93245 -3.24758,-3.56912 -7.20255,-5.35368 -11.86491,-5.35368 z"
           id="path12920"
           inkscape:label="r" />
      </g>
    </g>
  </g>
</svg>
