<svg id="Layer_1" data-name="Layer 1" xmlns="http://www.w3.org/2000/svg" viewBox="0 0 512.61 85"><defs><style>.cls-1{fill:#222831;}.cls-2{fill:#f89938;}.cls-3{fill:#282973;}.cls-4{fill:#1b8943;}</style></defs><title>rG</title><path class="cls-1" d="M32.91,37a7,7,0,0,1,2.2,1.57,27.92,27.92,0,0,1,2.25,2.56,33.3,33.3,0,0,1,2.06,3c.63,1,1.18,1.94,1.66,2.78L35.16,53.2c-.36-.6-.81-1.28-1.35-2a15.67,15.67,0,0,0-1.71-2,8.8,8.8,0,0,0-1.84-1.44,2.43,2.43,0,0,0-1.75-.36c-.54.18-1.34.53-2.42,1s-2.25,1.11-3.5,1.8-2.52,1.4-3.77,2.15-2.34,1.43-3.23,2V73.49L7.51,65.68V34.07H4.18l-4.49-7.9H41l4.49,7.9H15.59V49.51l8.88-7.72c.48-.41,1.08-.95,1.8-1.61a18.89,18.89,0,0,1,2.29-1.8,14.44,14.44,0,0,1,2.38-1.3A2.43,2.43,0,0,1,32.91,37Z" transform="translate(0.31 -7.5)"/><path class="cls-2" d="M73.13,37.22a22.42,22.42,0,0,1,4.13,1.66,17.43,17.43,0,0,1,3.46,2.33A10.94,10.94,0,0,1,83.05,44a6.18,6.18,0,0,1,.85,3.05V73.58L76.72,68a16.86,16.86,0,0,1-4.22,3,26.05,26.05,0,0,1-5.65,2.11,29.35,29.35,0,0,1-6.33.85,21.62,21.62,0,0,1-6.24-.71,16.06,16.06,0,0,1-5.39-2.61,11.84,11.84,0,0,1-3.77-4.76,9.89,9.89,0,0,1-.94-6.28,12.78,12.78,0,0,1,2.6-5.7,15.58,15.58,0,0,1,5.3-4.22,17.94,17.94,0,0,1,7.18-1.89A21.26,21.26,0,0,1,67.43,49a25.23,25.23,0,0,1,8.39,5.16v-7a4.33,4.33,0,0,0-2.82-4,11,11,0,0,0-6.87-.68c-1.92.3-3.44.57-4.58.81s-2.22.53-3.23.85-2.13.74-3.32,1.22l-4.85,1.88-2-4.49c2-.84,4-1.64,6-2.42q2.6-1,5.52-2a53.6,53.6,0,0,1,5.34-1.52.87.87,0,0,1,.4-.09.91.91,0,0,0,.41-.09V34.07H43.23l-4.48-7.9H88.3l4.49,7.9H73.13Zm2.69,22.35a25.27,25.27,0,0,0-7.36-4,21,21,0,0,0-7.18-1.21,11.5,11.5,0,0,0-5.75,1.57,6.54,6.54,0,0,0-3.05,4.36,6.63,6.63,0,0,0,.36,4.94A5.76,5.76,0,0,0,56,67.74a12.74,12.74,0,0,0,4.94.54,26.59,26.59,0,0,0,5.65-1,35.66,35.66,0,0,0,5.3-2,16.87,16.87,0,0,0,3.9-2.43Z" transform="translate(0.31 -7.5)"/><path class="cls-1" d="M121.7,39.1a11.29,11.29,0,0,1,4.53,2.56A18.06,18.06,0,0,1,129.69,46a22.45,22.45,0,0,1,2.2,5.25,20.31,20.31,0,0,1,.76,5.39v21a13.72,13.72,0,0,1-.63,4.27,13.86,13.86,0,0,1-1.7,3.5,12.5,12.5,0,0,1-2.47,2.69A15.68,15.68,0,0,1,125,89.91a22,22,0,0,1-6.11,2.16,24.86,24.86,0,0,1-5.7.4,21.43,21.43,0,0,1-5.2-.89,38.09,38.09,0,0,1-4.63-1.76,34.82,34.82,0,0,1-9.24-6.46l4.4-4.94a30.51,30.51,0,0,0,5.2,5.21,23.32,23.32,0,0,0,5.61,3.28A15.32,15.32,0,0,0,115,88a11.65,11.65,0,0,0,5.3-1.26,10.9,10.9,0,0,0,3-2.38,4.92,4.92,0,0,0,1.3-3V68.1a9.52,9.52,0,0,1-4.17,3.63,18.72,18.72,0,0,1-6.06,1.67,22.24,22.24,0,0,1-6.78-.36,19.25,19.25,0,0,1-6.24-2.43,18.9,18.9,0,0,1-5.39-4.89,18.25,18.25,0,0,1-2.92-6,17.57,17.57,0,0,1-.49-6.46,16.94,16.94,0,0,1,1.89-6.15,18.64,18.64,0,0,1,3.45-4.44,20.2,20.2,0,0,1,4.72-3.37,20.61,20.61,0,0,1,5.65-1.93,22.55,22.55,0,0,1,6.2-.31v-3H89.11l-4.49-7.9H136l4.49,7.9H121.7ZM104.19,67.38a12.4,12.4,0,0,0,7.27,2.24,11.38,11.38,0,0,0,6.11-2.06,15,15,0,0,0,4.44-5,18.5,18.5,0,0,0,2.25-6.47,15.52,15.52,0,0,0-.41-6.55,9.37,9.37,0,0,0-3.59-5.16,10.28,10.28,0,0,0-6.69-2.29A13.19,13.19,0,0,0,107.15,44,17,17,0,0,0,102,48.89a17.26,17.26,0,0,0-2.88,6.42A12.22,12.22,0,0,0,99.57,62,10.36,10.36,0,0,0,104.19,67.38Z" transform="translate(0.31 -7.5)"/><path class="cls-1" d="M168,37a13.22,13.22,0,0,1,4.36.76,14.68,14.68,0,0,1,4.08,2.2,15.88,15.88,0,0,1,3.28,3.37,11.77,11.77,0,0,1,1.93,4.26,17.32,17.32,0,0,1,.4,5.25,18.21,18.21,0,0,1-1.3,5,66.81,66.81,0,0,1-3.05,6.38q-2,3.67-4.85,9.34a5.59,5.59,0,0,1-3.23-1.17,4.59,4.59,0,0,1-1.3-2.7c-.21-1.19.25-2.87,1.39-5a47.7,47.7,0,0,0,2.65-6.11A21.73,21.73,0,0,0,173.59,53a11,11,0,0,0-.5-4.45,5.18,5.18,0,0,0-2.46-2.92,12.4,12.4,0,0,0-2.47-1.07,6.33,6.33,0,0,0-2.74-.14A12.06,12.06,0,0,0,162,45.61a28.11,28.11,0,0,0-4.53,2.92l-6.73,5V73.49l-8.08-7.81V34.07h-3.33l-4.48-7.9h7.81c0-2.09-.06-4.1-.18-6-.12-1.62-.3-3.23-.54-4.85a15.51,15.51,0,0,0-1-3.86,9.48,9.48,0,0,0-.67-1.17c-.21-.3-.41-.56-.59-.8a2.82,2.82,0,0,1-.54-.72l.63-1.26a21.44,21.44,0,0,1,2.88,1.44A24,24,0,0,1,145.31,11,14.29,14.29,0,0,1,148,14.32a19.45,19.45,0,0,1,2,5.34,36.59,36.59,0,0,1,.68,6.51h33.66l4.49,7.9H150.7V45.74c.29-.23,1-.83,2.19-1.79a46.43,46.43,0,0,1,4.18-3,34,34,0,0,1,5.3-2.78A14.41,14.41,0,0,1,168,37Z" transform="translate(0.31 -7.5)"/><path class="cls-3" d="M217.22,37.22a22.71,22.71,0,0,1,4.13,1.66,17.35,17.35,0,0,1,3.45,2.33A10.79,10.79,0,0,1,227.14,44a6.18,6.18,0,0,1,.85,3.05V73.58L220.81,68a17,17,0,0,1-4.22,3,26,26,0,0,1-5.66,2.11,29.18,29.18,0,0,1-6.33.85,21.7,21.7,0,0,1-6.24-.71A16,16,0,0,1,193,70.61a11.84,11.84,0,0,1-3.77-4.76,9.82,9.82,0,0,1-.94-6.28,12.67,12.67,0,0,1,2.6-5.7,15.58,15.58,0,0,1,5.3-4.22,17.89,17.89,0,0,1,7.18-1.89A21.29,21.29,0,0,1,211.52,49a25.23,25.23,0,0,1,8.39,5.16v-7a4.33,4.33,0,0,0-2.83-4,10.93,10.93,0,0,0-6.87-.68c-1.91.3-3.44.57-4.57.81s-2.22.53-3.24.85-2.12.74-3.32,1.22l-4.84,1.88-2-4.49c2-.84,4-1.64,6-2.42q2.59-1,5.52-2a53.6,53.6,0,0,1,5.34-1.52.87.87,0,0,1,.4-.09.91.91,0,0,0,.41-.09V34.07H187.32l-4.49-7.9h49.56l4.49,7.9H217.22Zm2.69,22.35a25.27,25.27,0,0,0-7.36-4,21,21,0,0,0-7.18-1.21,11.5,11.5,0,0,0-5.75,1.57,6.54,6.54,0,0,0-3.05,4.36,6.63,6.63,0,0,0,.36,4.94,5.76,5.76,0,0,0,3.19,2.51,12.71,12.71,0,0,0,4.93.54,26.68,26.68,0,0,0,5.66-1,36.08,36.08,0,0,0,5.3-2,17.09,17.09,0,0,0,3.9-2.43Z" transform="translate(0.31 -7.5)"/><path class="cls-1" d="M274.94,34.07q-.81,3.24-2.2,8.17t-3.14,10.1q-1.75,5.17-3.68,9.74a29.62,29.62,0,0,1-3.9,7,15.77,15.77,0,0,1-3.42,3.18,7.09,7.09,0,0,1-3.27,1.26,4.39,4.39,0,0,1-2.83-.67,5.88,5.88,0,0,1-2.07-2.52c-.77-1.55-1.61-3.41-2.51-5.56s-1.79-4.42-2.69-6.78-1.8-4.76-2.7-7.18S240.8,46.1,240,44s-1.47-4.1-2.06-5.84-1.05-3.08-1.35-4h-4.4l-4.49-7.9h21.73l4.49,7.9h-8.53c.54,1.5,1.25,3.52,2.15,6.06s1.84,5.2,2.83,7.95,1.94,5.39,2.87,7.9,1.69,4.46,2.29,5.83,1.45,2,2.38,1.8A6.65,6.65,0,0,0,261,61.1a22.57,22.57,0,0,0,2.6-4.67c1-2.16,1.91-4.54,2.87-7.14s1.87-5.25,2.74-7.94,1.63-5.12,2.29-7.28h-8.8l-4.58-7.9h19.94l4.48,7.9Z" transform="translate(0.31 -7.5)"/><path class="cls-1" d="M340.3,39.1a11.29,11.29,0,0,1,4.53,2.56A18.06,18.06,0,0,1,348.29,46a22.45,22.45,0,0,1,2.2,5.25,20.72,20.72,0,0,1,.76,5.39v21a13.72,13.72,0,0,1-.63,4.27,13.86,13.86,0,0,1-1.7,3.5,12.76,12.76,0,0,1-2.47,2.69,15.68,15.68,0,0,1-2.83,1.84,22,22,0,0,1-6.11,2.16,24.86,24.86,0,0,1-5.7.4,21.43,21.43,0,0,1-5.2-.89A38.09,38.09,0,0,1,322,89.82a34.82,34.82,0,0,1-9.24-6.46l4.4-4.94a30.51,30.51,0,0,0,5.2,5.21A23.32,23.32,0,0,0,328,86.91,15.32,15.32,0,0,0,333.56,88a11.68,11.68,0,0,0,5.3-1.26,10.9,10.9,0,0,0,3-2.38,4.92,4.92,0,0,0,1.3-3V68.1A9.52,9.52,0,0,1,339,71.73a18.72,18.72,0,0,1-6.06,1.67,22.24,22.24,0,0,1-6.78-.36,19.25,19.25,0,0,1-6.24-2.43,18.9,18.9,0,0,1-5.39-4.89,18.05,18.05,0,0,1-2.92-6,17.36,17.36,0,0,1-.49-6.46A16.94,16.94,0,0,1,313,47.09a18.39,18.39,0,0,1,3.45-4.44,20.35,20.35,0,0,1,4.71-3.37,20.79,20.79,0,0,1,5.66-1.93A22.55,22.55,0,0,1,333,37v-3H307.71l-4.49-7.9h51.35l4.49,7.9H340.3ZM322.79,67.38a12.4,12.4,0,0,0,7.27,2.24,11.38,11.38,0,0,0,6.11-2.06,15.09,15.09,0,0,0,4.44-5,18.5,18.5,0,0,0,2.25-6.47,15.68,15.68,0,0,0-.41-6.55,9.37,9.37,0,0,0-3.59-5.16,10.28,10.28,0,0,0-6.69-2.29A13.19,13.19,0,0,0,325.75,44a17,17,0,0,0-5.11,4.85,17.26,17.26,0,0,0-2.88,6.42,12.22,12.22,0,0,0,.41,6.64A10.36,10.36,0,0,0,322.79,67.38Z" transform="translate(0.31 -7.5)"/><path class="cls-1" d="M387,39.1a18.52,18.52,0,0,1,6.33,4.67A19.09,19.09,0,0,1,397,50.05a18.15,18.15,0,0,1,.94,7,16.13,16.13,0,0,1-1.84,6.64,16.63,16.63,0,0,1-5.12,5.79,21.62,21.62,0,0,1-7.41,3.41,24.46,24.46,0,0,1-8.48.59,20.27,20.27,0,0,1-8.44-2.88,18.86,18.86,0,0,1-5.38-4.89,18.05,18.05,0,0,1-2.92-6,17.37,17.37,0,0,1-.5-6.46,16.94,16.94,0,0,1,1.89-6.15,18.69,18.69,0,0,1,3.46-4.44,19.94,19.94,0,0,1,4.71-3.37,20.61,20.61,0,0,1,5.65-1.93,22.55,22.55,0,0,1,6.2-.31v-3H354.39l-4.49-7.9h51.53l4.49,7.9H387ZM369.47,67.38a12.14,12.14,0,0,0,13.88.13,16.82,16.82,0,0,0,4.93-5.07A19.4,19.4,0,0,0,391,55.93a14.77,14.77,0,0,0,0-6.55,8.77,8.77,0,0,0-3.46-5.16,10.47,10.47,0,0,0-6.82-2.29,14.5,14.5,0,0,0-6.78,2,19.45,19.45,0,0,0-5.61,4.94A17.82,17.82,0,0,0,365,55.31,12.18,12.18,0,0,0,365,62,9.5,9.5,0,0,0,369.47,67.38Z" transform="translate(0.31 -7.5)"/><path class="cls-1" d="M454.49,34.07h-9.16V77.61A12.28,12.28,0,0,1,443,85.38a16,16,0,0,1-5.3,4.53,21.93,21.93,0,0,1-6.06,2.16,24.36,24.36,0,0,1-5.65.4,21.51,21.51,0,0,1-5.21-.89,37.31,37.31,0,0,1-4.62-1.76,35.93,35.93,0,0,1-9.25-6.37v-.09l4.31-4.85c1.5,1.5,3,3,4.67,4.49A23,23,0,0,0,421,86.64a14.75,14.75,0,0,0,5.7,1.61,12.67,12.67,0,0,0,6.5-1.48,9.66,9.66,0,0,0,2.92-2.38,4.68,4.68,0,0,0,1.12-3V65.05c-.53.48-1.39,1.18-2.55,2.11a38.59,38.59,0,0,1-4.09,2.78,35.61,35.61,0,0,1-5,2.47,14.13,14.13,0,0,1-5.29,1.08,13.23,13.23,0,0,1-4.36-.77,14.54,14.54,0,0,1-4.08-2.2,15.84,15.84,0,0,1-3.28-3.36,11.72,11.72,0,0,1-1.93-4.27,15.21,15.21,0,0,1-.18-5.7,28.49,28.49,0,0,1,1.8-6.15c.89-2.21,2.06-4.7,3.5-7.45l4.94-9.52H403.5L399,26.17h17.15l4.49,7.9a6.34,6.34,0,0,1,.45,4,21.63,21.63,0,0,1-.77,3.24,40.57,40.57,0,0,1-1.75,4.48,64.58,64.58,0,0,0-2.42,6.24,27.2,27.2,0,0,0-1.26,5.48,10.15,10.15,0,0,0,.36,4.35,5,5,0,0,0,2.42,2.88,11.13,11.13,0,0,0,2.47,1.07,6.33,6.33,0,0,0,2.74.14,12.06,12.06,0,0,0,3.46-1.17,29,29,0,0,0,4.53-2.92l6.37-4.75V34.07h-8.08l-4.48-7.9H450Z" transform="translate(0.31 -7.5)"/><path class="cls-4" d="M482.32,37.22a22.42,22.42,0,0,1,4.13,1.66,17.43,17.43,0,0,1,3.46,2.33A10.94,10.94,0,0,1,492.24,44a6.18,6.18,0,0,1,.85,3.05V73.58L485.91,68a16.86,16.86,0,0,1-4.22,3A25.86,25.86,0,0,1,476,73.08a29.35,29.35,0,0,1-6.33.85,21.62,21.62,0,0,1-6.24-.71,16.06,16.06,0,0,1-5.39-2.61,11.93,11.93,0,0,1-3.77-4.76,9.89,9.89,0,0,1-.94-6.28,12.89,12.89,0,0,1,2.6-5.7,15.58,15.58,0,0,1,5.3-4.22,17.94,17.94,0,0,1,7.18-1.89A21.26,21.26,0,0,1,476.62,49,25.23,25.23,0,0,1,485,54.18v-7a4.33,4.33,0,0,0-2.82-4,11,11,0,0,0-6.87-.68c-1.92.3-3.44.57-4.58.81s-2.21.53-3.23.85-2.13.74-3.32,1.22l-4.85,1.88-2-4.49c2-.84,4-1.64,6-2.42q2.6-1,5.52-2a53.6,53.6,0,0,1,5.34-1.52.9.9,0,0,1,.4-.09.91.91,0,0,0,.41-.09V34.07H452.43l-4.49-7.9h49.55l4.49,7.9H482.32ZM485,59.57a25.14,25.14,0,0,0-7.36-4,21,21,0,0,0-7.18-1.21,11.53,11.53,0,0,0-5.75,1.57,6.54,6.54,0,0,0-3.05,4.36,6.63,6.63,0,0,0,.36,4.94,5.76,5.76,0,0,0,3.19,2.51,12.74,12.74,0,0,0,4.94.54,26.59,26.59,0,0,0,5.65-1,35.66,35.66,0,0,0,5.3-2,16.87,16.87,0,0,0,3.9-2.43Z" transform="translate(0.31 -7.5)"/><path class="cls-1" d="M512.31,73.49l-8.08-7.81V26.17c0-2.09-.07-4.1-.18-6-.12-1.62-.3-3.23-.54-4.85a15.51,15.51,0,0,0-1-3.86,11,11,0,0,0-.67-1.17c-.21-.3-.41-.56-.59-.8a2.82,2.82,0,0,1-.54-.72l.63-1.26a21.44,21.44,0,0,1,2.88,1.44A24,24,0,0,1,506.92,11a14.55,14.55,0,0,1,2.69,3.32,19.45,19.45,0,0,1,2,5.34,36.59,36.59,0,0,1,.68,6.51Z" transform="translate(0.31 -7.5)"/></svg>