<?xml version="1.0" encoding="utf-8"?>
<!-- Generator: Adobe Illustrator 23.1.0, SVG Export Plug-In . SVG Version: 6.00 Build 0)  -->
<svg version="1.1" id="Layer_1" xmlns="http://www.w3.org/2000/svg" xmlns:xlink="http://www.w3.org/1999/xlink" x="0px" y="0px"
	 viewBox="0 0 24 24" style="enable-background:new 0 0 24 24;" xml:space="preserve">
<style type="text/css">
	.st0{fill:#21759B;}
</style>
<title>WordPress icon</title>
<path class="st0" d="M21.5,6.8c0.8,1.5,1.3,3.3,1.3,5.2c0,4-2.2,7.5-5.4,9.3l3.3-9.5c0.6-1.5,0.8-2.8,0.8-3.9
	C21.5,7.5,21.5,7.2,21.5,6.8 M13.5,6.9c0.6,0,1.2-0.1,1.2-0.1c0.6-0.1,0.5-0.9-0.1-0.9c0,0-1.8,0.1-2.9,0.1c-1.1,0-2.8-0.2-2.8-0.2
	c-0.6,0-0.7,0.9-0.1,0.9c0,0,0.5,0.1,1.1,0.1l1.7,4.6l-2.4,7.1L5.4,6.9c0.6,0,1.2-0.1,1.2-0.1c0.6-0.1,0.5-0.9-0.1-0.9
	c0,0-1.7,0.1-2.9,0.1C3.4,6,3.2,6,3,6c2-2.9,5.3-4.8,9-4.8c2.8,0,5.4,1.1,7.3,2.8c0,0-0.1,0-0.1,0C18.1,4,17.3,5,17.3,6
	c0,0.9,0.5,1.6,1.1,2.5c0.4,0.7,0.9,1.6,0.9,3c0,0.9-0.4,2-0.8,3.5l-1.1,3.6L13.5,6.9C13.5,6.9,13.5,6.9,13.5,6.9z M12,22.8
	c-1.1,0-2.1-0.2-3-0.4l3.2-9.4l3.3,9.1c0,0.1,0.1,0.1,0.1,0.1C14.5,22.6,13.3,22.8,12,22.8 M1.2,12c0-1.6,0.3-3.1,0.9-4.4l5.1,14.1
	C3.7,20,1.2,16.3,1.2,12 M12,0C5.4,0,0,5.4,0,12s5.4,12,12,12s12-5.4,12-12S18.6,0,12,0"/>
</svg>
